ISO-10303-21;
HEADER;
/* Generated by software containing ST-Developer
 * from STEP Tools, Inc. (www.steptools.com) 
 */

FILE_DESCRIPTION(
/* description */ (''),
/* implementation_level */ '2;1');

FILE_NAME(
/* name */ 'Heated Pitot space model (Assembly).step',
/* time_stamp */ '2026-09-16T11:43:14+01:00',
/* author */ (''),
/* organization */ (''),
/* preprocessor_version */ 'ST-DEVELOPER v20.2',
/* originating_system */ 'Autodesk Translation Framework v15.15.0.0',
/* authorisation */ '');

FILE_SCHEMA (('AUTOMOTIVE_DESIGN { 1 0 10303 214 3 1 1 }'));
ENDSEC;

DATA;
#10=MECHANICAL_DESIGN_GEOMETRIC_PRESENTATION_REPRESENTATION('',(#30,#31,
#32),#738);
#11=ITEM_DEFINED_TRANSFORMATION($,$,#406,#454);
#12=ITEM_DEFINED_TRANSFORMATION($,$,#422,#455);
#13=ITEM_DEFINED_TRANSFORMATION($,$,#431,#456);
#14=(
REPRESENTATION_RELATIONSHIP($,$,#755,#754)
REPRESENTATION_RELATIONSHIP_WITH_TRANSFORMATION(#11)
SHAPE_REPRESENTATION_RELATIONSHIP()
);
#15=(
REPRESENTATION_RELATIONSHIP($,$,#756,#754)
REPRESENTATION_RELATIONSHIP_WITH_TRANSFORMATION(#12)
SHAPE_REPRESENTATION_RELATIONSHIP()
);
#16=(
REPRESENTATION_RELATIONSHIP($,$,#757,#754)
REPRESENTATION_RELATIONSHIP_WITH_TRANSFORMATION(#13)
SHAPE_REPRESENTATION_RELATIONSHIP()
);
#17=CONTEXT_DEPENDENT_SHAPE_REPRESENTATION(#14,#751);
#18=CONTEXT_DEPENDENT_SHAPE_REPRESENTATION(#15,#752);
#19=CONTEXT_DEPENDENT_SHAPE_REPRESENTATION(#16,#753);
#20=NEXT_ASSEMBLY_USAGE_OCCURRENCE('heated pitot tip space saver:1',
'heated pitot tip space saver:1','heated pitot tip space saver:1',#759,
#760,'heated pitot tip space saver:1');
#21=NEXT_ASSEMBLY_USAGE_OCCURRENCE('ADM tube:1','ADM tube:1',
'ADM tube:1',#759,#761,'ADM tube:1');
#22=NEXT_ASSEMBLY_USAGE_OCCURRENCE('space model ADM positioner:1',
'space model ADM positioner:1','space model ADM positioner:1',#759,#762,
'space model ADM positioner:1');
#23=B_SPLINE_CURVE_WITH_KNOTS('',3,(#684,#685,#686,#687,#688,#689,#690,
#691,#692,#693,#694,#695,#696,#697,#698,#699,#700,#701,#702,#703),
 .UNSPECIFIED.,.F.,.F.,(4,2,2,2,2,2,2,2,2,4),(0.531179600889949,0.560134095354823,
0.589088589819696,0.646997578749443,0.728824943992442,0.810652309235441,
0.88096806001205,0.95128381078866,1.00682150628428,1.0623592017799),
 .UNSPECIFIED.);
#24=SHAPE_REPRESENTATION_RELATIONSHIP('SRR','None',#755,#27);
#25=SHAPE_REPRESENTATION_RELATIONSHIP('SRR','None',#756,#28);
#26=SHAPE_REPRESENTATION_RELATIONSHIP('SRR','None',#757,#29);
#27=ADVANCED_BREP_SHAPE_REPRESENTATION('',(#33),#735);
#28=ADVANCED_BREP_SHAPE_REPRESENTATION('',(#34),#736);
#29=ADVANCED_BREP_SHAPE_REPRESENTATION('',(#35),#737);
#30=STYLED_ITEM('',(#779),#33);
#31=STYLED_ITEM('',(#780),#34);
#32=STYLED_ITEM('',(#778),#35);
#33=MANIFOLD_SOLID_BREP('Body1',#368);
#34=MANIFOLD_SOLID_BREP('Body1',#369);
#35=MANIFOLD_SOLID_BREP('Body2',#370);
#36=FACE_BOUND('',#125,.T.);
#37=FACE_BOUND('',#129,.T.);
#38=FACE_BOUND('',#131,.T.);
#39=FACE_BOUND('',#134,.T.);
#40=FACE_BOUND('',#136,.T.);
#41=FACE_BOUND('',#137,.T.);
#42=FACE_BOUND('',#139,.T.);
#43=FACE_BOUND('',#140,.T.);
#44=CONICAL_SURFACE('',#417,8.5,0.785398163397449);
#45=(
BOUNDED_SURFACE()
B_SPLINE_SURFACE(2,2,((#590,#591,#592,#593,#594,#595,#596,#597,#598),(#599,
#600,#601,#602,#603,#604,#605,#606,#607),(#608,#609,#610,#611,#612,#613,
#614,#615,#616)),.UNSPECIFIED.,.F.,.T.,.F.)
B_SPLINE_SURFACE_WITH_KNOTS((3,3),(3,2,2,2,3),(-1.5707963267949,0.),(-3.14159265358979,
-1.5707963267949,0.,1.5707963267949,3.14159265358979),.UNSPECIFIED.)
GEOMETRIC_REPRESENTATION_ITEM()
RATIONAL_B_SPLINE_SURFACE(((1.,0.707106781186548,1.,0.707106781186548,1.,
0.707106781186548,1.,0.707106781186548,1.),(0.707106781186548,0.5,0.707106781186548,
0.5,0.707106781186548,0.5,0.707106781186548,0.5,0.707106781186548),(1.,
0.707106781186548,1.,0.707106781186548,1.,0.707106781186548,1.,0.707106781186548,
1.)))
REPRESENTATION_ITEM('')
SURFACE()
);
#46=LINE('',#589,#66);
#47=LINE('',#625,#67);
#48=LINE('',#629,#68);
#49=LINE('',#633,#69);
#50=LINE('',#641,#70);
#51=LINE('',#647,#71);
#52=LINE('',#655,#72);
#53=LINE('',#657,#73);
#54=LINE('',#661,#74);
#55=LINE('',#663,#75);
#56=LINE('',#667,#76);
#57=LINE('',#671,#77);
#58=LINE('',#675,#78);
#59=LINE('',#680,#79);
#60=LINE('',#683,#80);
#61=LINE('',#705,#81);
#62=LINE('',#712,#82);
#63=LINE('',#713,#83);
#64=LINE('',#721,#84);
#65=LINE('',#723,#85);
#66=VECTOR('',#469,9.00000013411045);
#67=VECTOR('',#480,7.);
#68=VECTOR('',#485,8.5);
#69=VECTOR('',#490,10.);
#70=VECTOR('',#501,9.);
#71=VECTOR('',#508,10.);
#72=VECTOR('',#519,10.);
#73=VECTOR('',#520,10.);
#74=VECTOR('',#523,10.);
#75=VECTOR('',#524,10.);
#76=VECTOR('',#529,10.);
#77=VECTOR('',#532,10.);
#78=VECTOR('',#535,9.);
#79=VECTOR('',#540,10.);
#80=VECTOR('',#543,10.);
#81=VECTOR('',#546,10.);
#82=VECTOR('',#555,10.);
#83=VECTOR('',#556,10.);
#84=VECTOR('',#567,1.5);
#85=VECTOR('',#570,1.5);
#86=CYLINDRICAL_SURFACE('',#409,9.00000013411045);
#87=CYLINDRICAL_SURFACE('',#414,7.);
#88=CYLINDRICAL_SURFACE('',#419,10.);
#89=CYLINDRICAL_SURFACE('',#423,9.);
#90=CYLINDRICAL_SURFACE('',#426,10.);
#91=CYLINDRICAL_SURFACE('',#435,9.);
#92=CYLINDRICAL_SURFACE('',#450,1.5);
#93=CYLINDRICAL_SURFACE('',#451,1.5);
#94=CYLINDRICAL_SURFACE('',#452,1.5);
#95=FACE_OUTER_BOUND('',#117,.T.);
#96=FACE_OUTER_BOUND('',#118,.T.);
#97=FACE_OUTER_BOUND('',#119,.T.);
#98=FACE_OUTER_BOUND('',#120,.T.);
#99=FACE_OUTER_BOUND('',#121,.T.);
#100=FACE_OUTER_BOUND('',#122,.T.);
#101=FACE_OUTER_BOUND('',#123,.T.);
#102=FACE_OUTER_BOUND('',#124,.T.);
#103=FACE_OUTER_BOUND('',#126,.T.);
#104=FACE_OUTER_BOUND('',#127,.T.);
#105=FACE_OUTER_BOUND('',#128,.T.);
#106=FACE_OUTER_BOUND('',#130,.T.);
#107=FACE_OUTER_BOUND('',#132,.T.);
#108=FACE_OUTER_BOUND('',#133,.T.);
#109=FACE_OUTER_BOUND('',#135,.T.);
#110=FACE_OUTER_BOUND('',#138,.T.);
#111=FACE_OUTER_BOUND('',#141,.T.);
#112=FACE_OUTER_BOUND('',#142,.T.);
#113=FACE_OUTER_BOUND('',#143,.T.);
#114=FACE_OUTER_BOUND('',#144,.T.);
#115=FACE_OUTER_BOUND('',#145,.T.);
#116=FACE_OUTER_BOUND('',#146,.T.);
#117=EDGE_LOOP('',(#245));
#118=EDGE_LOOP('',(#246,#247,#248,#249));
#119=EDGE_LOOP('',(#250,#251,#252,#253));
#120=EDGE_LOOP('',(#254,#255,#256,#257));
#121=EDGE_LOOP('',(#258));
#122=EDGE_LOOP('',(#259,#260,#261,#262));
#123=EDGE_LOOP('',(#263,#264,#265,#266));
#124=EDGE_LOOP('',(#267));
#125=EDGE_LOOP('',(#268));
#126=EDGE_LOOP('',(#269,#270,#271,#272));
#127=EDGE_LOOP('',(#273,#274,#275,#276));
#128=EDGE_LOOP('',(#277));
#129=EDGE_LOOP('',(#278));
#130=EDGE_LOOP('',(#279));
#131=EDGE_LOOP('',(#280));
#132=EDGE_LOOP('',(#281,#282,#283,#284,#285,#286));
#133=EDGE_LOOP('',(#287,#288,#289,#290,#291,#292,#293,#294,#295,#296,#297,
#298));
#134=EDGE_LOOP('',(#299,#300));
#135=EDGE_LOOP('',(#301,#302,#303,#304,#305,#306));
#136=EDGE_LOOP('',(#307));
#137=EDGE_LOOP('',(#308));
#138=EDGE_LOOP('',(#309,#310,#311,#312));
#139=EDGE_LOOP('',(#313));
#140=EDGE_LOOP('',(#314));
#141=EDGE_LOOP('',(#315,#316,#317));
#142=EDGE_LOOP('',(#318,#319,#320,#321));
#143=EDGE_LOOP('',(#322,#323,#324,#325));
#144=EDGE_LOOP('',(#326,#327,#328,#329));
#145=EDGE_LOOP('',(#330,#331,#332,#333));
#146=EDGE_LOOP('',(#334));
#147=CIRCLE('',#408,9.00000013411045);
#148=CIRCLE('',#410,9.00000013411045);
#149=CIRCLE('',#411,7.);
#150=CIRCLE('',#412,5.);
#151=CIRCLE('',#413,2.);
#152=CIRCLE('',#415,7.);
#153=CIRCLE('',#418,10.);
#154=CIRCLE('',#420,10.);
#155=CIRCLE('',#424,9.);
#156=CIRCLE('',#425,9.);
#157=CIRCLE('',#427,10.);
#158=CIRCLE('',#428,10.);
#159=CIRCLE('',#433,9.);
#160=CIRCLE('',#434,9.);
#161=CIRCLE('',#436,9.);
#162=CIRCLE('',#437,9.);
#163=CIRCLE('',#438,9.);
#164=CIRCLE('',#439,9.);
#165=CIRCLE('',#440,9.);
#166=CIRCLE('',#442,1.5);
#167=CIRCLE('',#443,1.5);
#168=CIRCLE('',#444,1.5);
#169=CIRCLE('',#446,1.5);
#170=CIRCLE('',#447,1.5);
#171=VERTEX_POINT('',#584);
#172=VERTEX_POINT('',#587);
#173=VERTEX_POINT('',#617);
#174=VERTEX_POINT('',#619);
#175=VERTEX_POINT('',#623);
#176=VERTEX_POINT('',#628);
#177=VERTEX_POINT('',#632);
#178=VERTEX_POINT('',#638);
#179=VERTEX_POINT('',#640);
#180=VERTEX_POINT('',#644);
#181=VERTEX_POINT('',#646);
#182=VERTEX_POINT('',#653);
#183=VERTEX_POINT('',#654);
#184=VERTEX_POINT('',#656);
#185=VERTEX_POINT('',#658);
#186=VERTEX_POINT('',#660);
#187=VERTEX_POINT('',#662);
#188=VERTEX_POINT('',#666);
#189=VERTEX_POINT('',#668);
#190=VERTEX_POINT('',#670);
#191=VERTEX_POINT('',#672);
#192=VERTEX_POINT('',#674);
#193=VERTEX_POINT('',#677);
#194=VERTEX_POINT('',#679);
#195=VERTEX_POINT('',#681);
#196=VERTEX_POINT('',#707);
#197=VERTEX_POINT('',#709);
#198=VERTEX_POINT('',#714);
#199=VERTEX_POINT('',#716);
#200=EDGE_CURVE('',#171,#171,#147,.T.);
#201=EDGE_CURVE('',#172,#172,#148,.T.);
#202=EDGE_CURVE('',#172,#171,#46,.T.);
#203=EDGE_CURVE('',#173,#173,#149,.T.);
#204=EDGE_CURVE('',#173,#174,#150,.T.);
#205=EDGE_CURVE('',#174,#174,#151,.T.);
#206=EDGE_CURVE('',#175,#175,#152,.T.);
#207=EDGE_CURVE('',#175,#173,#47,.T.);
#208=EDGE_CURVE('',#175,#176,#48,.T.);
#209=EDGE_CURVE('',#176,#176,#153,.T.);
#210=EDGE_CURVE('',#176,#177,#49,.T.);
#211=EDGE_CURVE('',#177,#177,#154,.T.);
#212=EDGE_CURVE('',#178,#178,#155,.T.);
#213=EDGE_CURVE('',#178,#179,#50,.T.);
#214=EDGE_CURVE('',#179,#179,#156,.T.);
#215=EDGE_CURVE('',#180,#180,#157,.T.);
#216=EDGE_CURVE('',#180,#181,#51,.T.);
#217=EDGE_CURVE('',#181,#181,#158,.T.);
#218=EDGE_CURVE('',#182,#183,#52,.T.);
#219=EDGE_CURVE('',#184,#182,#53,.T.);
#220=EDGE_CURVE('',#184,#185,#159,.T.);
#221=EDGE_CURVE('',#186,#185,#54,.T.);
#222=EDGE_CURVE('',#187,#186,#55,.T.);
#223=EDGE_CURVE('',#187,#183,#160,.T.);
#224=EDGE_CURVE('',#187,#188,#56,.T.);
#225=EDGE_CURVE('',#189,#188,#161,.T.);
#226=EDGE_CURVE('',#189,#190,#57,.T.);
#227=EDGE_CURVE('',#190,#191,#162,.T.);
#228=EDGE_CURVE('',#191,#192,#58,.T.);
#229=EDGE_CURVE('',#192,#192,#163,.T.);
#230=EDGE_CURVE('',#191,#193,#164,.T.);
#231=EDGE_CURVE('',#193,#194,#59,.T.);
#232=EDGE_CURVE('',#195,#194,#165,.T.);
#233=EDGE_CURVE('',#195,#183,#60,.T.);
#234=EDGE_CURVE('',#184,#185,#23,.T.);
#235=EDGE_CURVE('',#188,#195,#61,.T.);
#236=EDGE_CURVE('',#186,#182,#166,.T.);
#237=EDGE_CURVE('',#196,#196,#167,.T.);
#238=EDGE_CURVE('',#197,#197,#168,.T.);
#239=EDGE_CURVE('',#194,#189,#62,.T.);
#240=EDGE_CURVE('',#193,#190,#63,.T.);
#241=EDGE_CURVE('',#198,#198,#169,.T.);
#242=EDGE_CURVE('',#199,#199,#170,.T.);
#243=EDGE_CURVE('',#197,#198,#64,.T.);
#244=EDGE_CURVE('',#196,#199,#65,.T.);
#245=ORIENTED_EDGE('',*,*,#200,.F.);
#246=ORIENTED_EDGE('',*,*,#201,.F.);
#247=ORIENTED_EDGE('',*,*,#202,.T.);
#248=ORIENTED_EDGE('',*,*,#200,.T.);
#249=ORIENTED_EDGE('',*,*,#202,.F.);
#250=ORIENTED_EDGE('',*,*,#203,.T.);
#251=ORIENTED_EDGE('',*,*,#204,.T.);
#252=ORIENTED_EDGE('',*,*,#205,.T.);
#253=ORIENTED_EDGE('',*,*,#204,.F.);
#254=ORIENTED_EDGE('',*,*,#206,.T.);
#255=ORIENTED_EDGE('',*,*,#207,.T.);
#256=ORIENTED_EDGE('',*,*,#203,.F.);
#257=ORIENTED_EDGE('',*,*,#207,.F.);
#258=ORIENTED_EDGE('',*,*,#205,.F.);
#259=ORIENTED_EDGE('',*,*,#206,.F.);
#260=ORIENTED_EDGE('',*,*,#208,.T.);
#261=ORIENTED_EDGE('',*,*,#209,.T.);
#262=ORIENTED_EDGE('',*,*,#208,.F.);
#263=ORIENTED_EDGE('',*,*,#209,.F.);
#264=ORIENTED_EDGE('',*,*,#210,.T.);
#265=ORIENTED_EDGE('',*,*,#211,.F.);
#266=ORIENTED_EDGE('',*,*,#210,.F.);
#267=ORIENTED_EDGE('',*,*,#211,.T.);
#268=ORIENTED_EDGE('',*,*,#201,.T.);
#269=ORIENTED_EDGE('',*,*,#212,.F.);
#270=ORIENTED_EDGE('',*,*,#213,.T.);
#271=ORIENTED_EDGE('',*,*,#214,.T.);
#272=ORIENTED_EDGE('',*,*,#213,.F.);
#273=ORIENTED_EDGE('',*,*,#215,.F.);
#274=ORIENTED_EDGE('',*,*,#216,.T.);
#275=ORIENTED_EDGE('',*,*,#217,.T.);
#276=ORIENTED_EDGE('',*,*,#216,.F.);
#277=ORIENTED_EDGE('',*,*,#215,.T.);
#278=ORIENTED_EDGE('',*,*,#212,.T.);
#279=ORIENTED_EDGE('',*,*,#217,.F.);
#280=ORIENTED_EDGE('',*,*,#214,.F.);
#281=ORIENTED_EDGE('',*,*,#218,.F.);
#282=ORIENTED_EDGE('',*,*,#219,.F.);
#283=ORIENTED_EDGE('',*,*,#220,.T.);
#284=ORIENTED_EDGE('',*,*,#221,.F.);
#285=ORIENTED_EDGE('',*,*,#222,.F.);
#286=ORIENTED_EDGE('',*,*,#223,.T.);
#287=ORIENTED_EDGE('',*,*,#223,.F.);
#288=ORIENTED_EDGE('',*,*,#224,.T.);
#289=ORIENTED_EDGE('',*,*,#225,.F.);
#290=ORIENTED_EDGE('',*,*,#226,.T.);
#291=ORIENTED_EDGE('',*,*,#227,.T.);
#292=ORIENTED_EDGE('',*,*,#228,.T.);
#293=ORIENTED_EDGE('',*,*,#229,.T.);
#294=ORIENTED_EDGE('',*,*,#228,.F.);
#295=ORIENTED_EDGE('',*,*,#230,.T.);
#296=ORIENTED_EDGE('',*,*,#231,.T.);
#297=ORIENTED_EDGE('',*,*,#232,.F.);
#298=ORIENTED_EDGE('',*,*,#233,.T.);
#299=ORIENTED_EDGE('',*,*,#234,.T.);
#300=ORIENTED_EDGE('',*,*,#220,.F.);
#301=ORIENTED_EDGE('',*,*,#218,.T.);
#302=ORIENTED_EDGE('',*,*,#233,.F.);
#303=ORIENTED_EDGE('',*,*,#235,.F.);
#304=ORIENTED_EDGE('',*,*,#224,.F.);
#305=ORIENTED_EDGE('',*,*,#222,.T.);
#306=ORIENTED_EDGE('',*,*,#236,.T.);
#307=ORIENTED_EDGE('',*,*,#237,.T.);
#308=ORIENTED_EDGE('',*,*,#238,.T.);
#309=ORIENTED_EDGE('',*,*,#239,.F.);
#310=ORIENTED_EDGE('',*,*,#231,.F.);
#311=ORIENTED_EDGE('',*,*,#240,.T.);
#312=ORIENTED_EDGE('',*,*,#226,.F.);
#313=ORIENTED_EDGE('',*,*,#241,.F.);
#314=ORIENTED_EDGE('',*,*,#242,.F.);
#315=ORIENTED_EDGE('',*,*,#240,.F.);
#316=ORIENTED_EDGE('',*,*,#230,.F.);
#317=ORIENTED_EDGE('',*,*,#227,.F.);
#318=ORIENTED_EDGE('',*,*,#239,.T.);
#319=ORIENTED_EDGE('',*,*,#225,.T.);
#320=ORIENTED_EDGE('',*,*,#235,.T.);
#321=ORIENTED_EDGE('',*,*,#232,.T.);
#322=ORIENTED_EDGE('',*,*,#238,.F.);
#323=ORIENTED_EDGE('',*,*,#243,.T.);
#324=ORIENTED_EDGE('',*,*,#241,.T.);
#325=ORIENTED_EDGE('',*,*,#243,.F.);
#326=ORIENTED_EDGE('',*,*,#237,.F.);
#327=ORIENTED_EDGE('',*,*,#244,.T.);
#328=ORIENTED_EDGE('',*,*,#242,.T.);
#329=ORIENTED_EDGE('',*,*,#244,.F.);
#330=ORIENTED_EDGE('',*,*,#219,.T.);
#331=ORIENTED_EDGE('',*,*,#236,.F.);
#332=ORIENTED_EDGE('',*,*,#221,.T.);
#333=ORIENTED_EDGE('',*,*,#234,.F.);
#334=ORIENTED_EDGE('',*,*,#229,.F.);
#335=PLANE('',#407);
#336=PLANE('',#416);
#337=PLANE('',#421);
#338=PLANE('',#429);
#339=PLANE('',#430);
#340=PLANE('',#432);
#341=PLANE('',#441);
#342=PLANE('',#445);
#343=PLANE('',#448);
#344=PLANE('',#449);
#345=PLANE('',#453);
#346=ADVANCED_FACE('',(#95),#335,.T.);
#347=ADVANCED_FACE('',(#96),#86,.T.);
#348=ADVANCED_FACE('',(#97),#45,.F.);
#349=ADVANCED_FACE('',(#98),#87,.T.);
#350=ADVANCED_FACE('',(#99),#336,.F.);
#351=ADVANCED_FACE('',(#100),#44,.T.);
#352=ADVANCED_FACE('',(#101),#88,.T.);
#353=ADVANCED_FACE('',(#102,#36),#337,.T.);
#354=ADVANCED_FACE('',(#103),#89,.F.);
#355=ADVANCED_FACE('',(#104),#90,.T.);
#356=ADVANCED_FACE('',(#105,#37),#338,.T.);
#357=ADVANCED_FACE('',(#106,#38),#339,.F.);
#358=ADVANCED_FACE('',(#107),#340,.T.);
#359=ADVANCED_FACE('',(#108,#39),#91,.T.);
#360=ADVANCED_FACE('',(#109,#40,#41),#341,.F.);
#361=ADVANCED_FACE('',(#110,#42,#43),#342,.F.);
#362=ADVANCED_FACE('',(#111),#343,.T.);
#363=ADVANCED_FACE('',(#112),#344,.T.);
#364=ADVANCED_FACE('',(#113),#92,.F.);
#365=ADVANCED_FACE('',(#114),#93,.F.);
#366=ADVANCED_FACE('',(#115),#94,.F.);
#367=ADVANCED_FACE('',(#116),#345,.F.);
#368=CLOSED_SHELL('',(#346,#347,#348,#349,#350,#351,#352,#353));
#369=CLOSED_SHELL('',(#354,#355,#356,#357));
#370=CLOSED_SHELL('',(#358,#359,#360,#361,#362,#363,#364,#365,#366,#367));
#371=DERIVED_UNIT_ELEMENT(#377,1.);
#372=DERIVED_UNIT_ELEMENT(#740,-3.);
#373=DERIVED_UNIT_ELEMENT(#377,1.);
#374=DERIVED_UNIT_ELEMENT(#740,-3.);
#375=DERIVED_UNIT_ELEMENT(#377,1.);
#376=DERIVED_UNIT_ELEMENT(#740,-3.);
#377=(
MASS_UNIT()
NAMED_UNIT(*)
SI_UNIT(.KILO.,.GRAM.)
);
#378=DERIVED_UNIT((#371,#372));
#379=DERIVED_UNIT((#373,#374));
#380=DERIVED_UNIT((#375,#376));
#381=MEASURE_REPRESENTATION_ITEM('density measure',
POSITIVE_RATIO_MEASURE(7850.),#378);
#382=MEASURE_REPRESENTATION_ITEM('density measure',
POSITIVE_RATIO_MEASURE(7850.),#379);
#383=MEASURE_REPRESENTATION_ITEM('density measure',
POSITIVE_RATIO_MEASURE(7850.),#380);
#384=PROPERTY_DEFINITION_REPRESENTATION(#399,#390);
#385=PROPERTY_DEFINITION_REPRESENTATION(#400,#391);
#386=PROPERTY_DEFINITION_REPRESENTATION(#401,#392);
#387=PROPERTY_DEFINITION_REPRESENTATION(#402,#393);
#388=PROPERTY_DEFINITION_REPRESENTATION(#403,#394);
#389=PROPERTY_DEFINITION_REPRESENTATION(#404,#395);
#390=REPRESENTATION('material name',(#396),#735);
#391=REPRESENTATION('density',(#381),#735);
#392=REPRESENTATION('material name',(#397),#736);
#393=REPRESENTATION('density',(#382),#736);
#394=REPRESENTATION('material name',(#398),#737);
#395=REPRESENTATION('density',(#383),#737);
#396=DESCRIPTIVE_REPRESENTATION_ITEM('Steel','Steel');
#397=DESCRIPTIVE_REPRESENTATION_ITEM('Steel','Steel');
#398=DESCRIPTIVE_REPRESENTATION_ITEM('Steel','Steel');
#399=PROPERTY_DEFINITION('material property','material name',#760);
#400=PROPERTY_DEFINITION('material property','density of part',#760);
#401=PROPERTY_DEFINITION('material property','material name',#761);
#402=PROPERTY_DEFINITION('material property','density of part',#761);
#403=PROPERTY_DEFINITION('material property','material name',#762);
#404=PROPERTY_DEFINITION('material property','density of part',#762);
#405=AXIS2_PLACEMENT_3D('',#581,#457,#458);
#406=AXIS2_PLACEMENT_3D('',#582,#459,#460);
#407=AXIS2_PLACEMENT_3D('',#583,#461,#462);
#408=AXIS2_PLACEMENT_3D('',#585,#463,#464);
#409=AXIS2_PLACEMENT_3D('',#586,#465,#466);
#410=AXIS2_PLACEMENT_3D('',#588,#467,#468);
#411=AXIS2_PLACEMENT_3D('',#618,#470,#471);
#412=AXIS2_PLACEMENT_3D('',#620,#472,#473);
#413=AXIS2_PLACEMENT_3D('',#621,#474,#475);
#414=AXIS2_PLACEMENT_3D('',#622,#476,#477);
#415=AXIS2_PLACEMENT_3D('',#624,#478,#479);
#416=AXIS2_PLACEMENT_3D('',#626,#481,#482);
#417=AXIS2_PLACEMENT_3D('',#627,#483,#484);
#418=AXIS2_PLACEMENT_3D('',#630,#486,#487);
#419=AXIS2_PLACEMENT_3D('',#631,#488,#489);
#420=AXIS2_PLACEMENT_3D('',#634,#491,#492);
#421=AXIS2_PLACEMENT_3D('',#635,#493,#494);
#422=AXIS2_PLACEMENT_3D('',#636,#495,#496);
#423=AXIS2_PLACEMENT_3D('',#637,#497,#498);
#424=AXIS2_PLACEMENT_3D('',#639,#499,#500);
#425=AXIS2_PLACEMENT_3D('',#642,#502,#503);
#426=AXIS2_PLACEMENT_3D('',#643,#504,#505);
#427=AXIS2_PLACEMENT_3D('',#645,#506,#507);
#428=AXIS2_PLACEMENT_3D('',#648,#509,#510);
#429=AXIS2_PLACEMENT_3D('',#649,#511,#512);
#430=AXIS2_PLACEMENT_3D('',#650,#513,#514);
#431=AXIS2_PLACEMENT_3D('',#651,#515,#516);
#432=AXIS2_PLACEMENT_3D('',#652,#517,#518);
#433=AXIS2_PLACEMENT_3D('',#659,#521,#522);
#434=AXIS2_PLACEMENT_3D('',#664,#525,#526);
#435=AXIS2_PLACEMENT_3D('',#665,#527,#528);
#436=AXIS2_PLACEMENT_3D('',#669,#530,#531);
#437=AXIS2_PLACEMENT_3D('',#673,#533,#534);
#438=AXIS2_PLACEMENT_3D('',#676,#536,#537);
#439=AXIS2_PLACEMENT_3D('',#678,#538,#539);
#440=AXIS2_PLACEMENT_3D('',#682,#541,#542);
#441=AXIS2_PLACEMENT_3D('',#704,#544,#545);
#442=AXIS2_PLACEMENT_3D('',#706,#547,#548);
#443=AXIS2_PLACEMENT_3D('',#708,#549,#550);
#444=AXIS2_PLACEMENT_3D('',#710,#551,#552);
#445=AXIS2_PLACEMENT_3D('',#711,#553,#554);
#446=AXIS2_PLACEMENT_3D('',#715,#557,#558);
#447=AXIS2_PLACEMENT_3D('',#717,#559,#560);
#448=AXIS2_PLACEMENT_3D('',#718,#561,#562);
#449=AXIS2_PLACEMENT_3D('',#719,#563,#564);
#450=AXIS2_PLACEMENT_3D('',#720,#565,#566);
#451=AXIS2_PLACEMENT_3D('',#722,#568,#569);
#452=AXIS2_PLACEMENT_3D('',#724,#571,#572);
#453=AXIS2_PLACEMENT_3D('',#725,#573,#574);
#454=AXIS2_PLACEMENT_3D('',#726,#575,#576);
#455=AXIS2_PLACEMENT_3D('',#727,#577,#578);
#456=AXIS2_PLACEMENT_3D('',#728,#579,#580);
#457=DIRECTION('axis',(0.,0.,1.));
#458=DIRECTION('refdir',(1.,0.,0.));
#459=DIRECTION('axis',(0.,0.,1.));
#460=DIRECTION('refdir',(1.,0.,0.));
#461=DIRECTION('center_axis',(0.,0.,1.));
#462=DIRECTION('ref_axis',(1.,0.,0.));
#463=DIRECTION('center_axis',(0.,0.,-1.));
#464=DIRECTION('ref_axis',(1.,0.,0.));
#465=DIRECTION('center_axis',(0.,0.,-1.));
#466=DIRECTION('ref_axis',(1.,0.,0.));
#467=DIRECTION('center_axis',(0.,0.,-1.));
#468=DIRECTION('ref_axis',(1.,0.,0.));
#469=DIRECTION('',(0.,0.,1.));
#470=DIRECTION('center_axis',(0.,0.,-1.));
#471=DIRECTION('ref_axis',(1.,0.,0.));
#472=DIRECTION('center_axis',(1.22464679914735E-16,-1.,0.));
#473=DIRECTION('ref_axis',(-1.,-1.22464679914735E-16,0.));
#474=DIRECTION('center_axis',(0.,0.,1.));
#475=DIRECTION('ref_axis',(1.,0.,0.));
#476=DIRECTION('center_axis',(0.,0.,1.));
#477=DIRECTION('ref_axis',(1.,0.,0.));
#478=DIRECTION('center_axis',(0.,0.,-1.));
#479=DIRECTION('ref_axis',(1.,0.,0.));
#480=DIRECTION('',(0.,0.,-1.));
#481=DIRECTION('center_axis',(0.,0.,1.));
#482=DIRECTION('ref_axis',(1.,0.,0.));
#483=DIRECTION('center_axis',(0.,0.,1.));
#484=DIRECTION('ref_axis',(1.,0.,0.));
#485=DIRECTION('',(-0.707106781186548,8.65956056235494E-17,0.707106781186547));
#486=DIRECTION('center_axis',(0.,0.,-1.));
#487=DIRECTION('ref_axis',(1.,0.,0.));
#488=DIRECTION('center_axis',(0.,0.,-1.));
#489=DIRECTION('ref_axis',(1.,0.,0.));
#490=DIRECTION('',(0.,0.,1.));
#491=DIRECTION('center_axis',(0.,0.,1.));
#492=DIRECTION('ref_axis',(1.,0.,0.));
#493=DIRECTION('center_axis',(0.,0.,1.));
#494=DIRECTION('ref_axis',(1.,0.,0.));
#495=DIRECTION('axis',(0.,0.,1.));
#496=DIRECTION('refdir',(1.,0.,0.));
#497=DIRECTION('center_axis',(0.,1.,0.));
#498=DIRECTION('ref_axis',(1.,0.,0.));
#499=DIRECTION('center_axis',(0.,-1.,0.));
#500=DIRECTION('ref_axis',(1.,0.,0.));
#501=DIRECTION('',(0.,-1.,0.));
#502=DIRECTION('center_axis',(0.,-1.,0.));
#503=DIRECTION('ref_axis',(1.,0.,0.));
#504=DIRECTION('center_axis',(0.,1.,0.));
#505=DIRECTION('ref_axis',(1.,0.,0.));
#506=DIRECTION('center_axis',(0.,1.,0.));
#507=DIRECTION('ref_axis',(1.,0.,0.));
#508=DIRECTION('',(0.,-1.,0.));
#509=DIRECTION('center_axis',(0.,1.,0.));
#510=DIRECTION('ref_axis',(1.,0.,0.));
#511=DIRECTION('center_axis',(0.,1.,0.));
#512=DIRECTION('ref_axis',(1.,0.,0.));
#513=DIRECTION('center_axis',(0.,1.,0.));
#514=DIRECTION('ref_axis',(1.,0.,0.));
#515=DIRECTION('axis',(0.,0.,1.));
#516=DIRECTION('refdir',(1.,0.,0.));
#517=DIRECTION('center_axis',(0.,0.,1.));
#518=DIRECTION('ref_axis',(1.,0.,0.));
#519=DIRECTION('',(0.,1.,0.));
#520=DIRECTION('',(1.,0.,0.));
#521=DIRECTION('center_axis',(0.,0.,1.));
#522=DIRECTION('ref_axis',(1.,0.,0.));
#523=DIRECTION('',(-1.,0.,0.));
#524=DIRECTION('',(0.,1.,0.));
#525=DIRECTION('center_axis',(0.,0.,1.));
#526=DIRECTION('ref_axis',(1.,0.,0.));
#527=DIRECTION('center_axis',(0.,0.,1.));
#528=DIRECTION('ref_axis',(1.,0.,0.));
#529=DIRECTION('',(0.,0.,1.));
#530=DIRECTION('center_axis',(0.,0.,1.));
#531=DIRECTION('ref_axis',(1.,0.,0.));
#532=DIRECTION('',(0.,0.,-1.));
#533=DIRECTION('center_axis',(0.,0.,-1.));
#534=DIRECTION('ref_axis',(1.,0.,0.));
#535=DIRECTION('',(0.,0.,-1.));
#536=DIRECTION('center_axis',(0.,0.,1.));
#537=DIRECTION('ref_axis',(1.,0.,0.));
#538=DIRECTION('center_axis',(0.,0.,-1.));
#539=DIRECTION('ref_axis',(1.,0.,0.));
#540=DIRECTION('',(0.,0.,1.));
#541=DIRECTION('center_axis',(0.,0.,1.));
#542=DIRECTION('ref_axis',(1.,0.,0.));
#543=DIRECTION('',(0.,0.,-1.));
#544=DIRECTION('center_axis',(-1.,0.,0.));
#545=DIRECTION('ref_axis',(0.,-1.,0.));
#546=DIRECTION('',(0.,1.,0.));
#547=DIRECTION('center_axis',(-1.,0.,0.));
#548=DIRECTION('ref_axis',(0.,0.,-1.));
#549=DIRECTION('center_axis',(-1.,0.,0.));
#550=DIRECTION('ref_axis',(0.,0.,-1.));
#551=DIRECTION('center_axis',(-1.,0.,0.));
#552=DIRECTION('ref_axis',(0.,0.,-1.));
#553=DIRECTION('center_axis',(1.,0.,0.));
#554=DIRECTION('ref_axis',(0.,-1.,0.));
#555=DIRECTION('',(0.,-1.,0.));
#556=DIRECTION('',(0.,-1.,0.));
#557=DIRECTION('center_axis',(-1.,0.,0.));
#558=DIRECTION('ref_axis',(0.,0.,-1.));
#559=DIRECTION('center_axis',(-1.,0.,0.));
#560=DIRECTION('ref_axis',(0.,0.,-1.));
#561=DIRECTION('center_axis',(0.,0.,1.));
#562=DIRECTION('ref_axis',(1.,0.,0.));
#563=DIRECTION('center_axis',(0.,0.,1.));
#564=DIRECTION('ref_axis',(1.,0.,0.));
#565=DIRECTION('center_axis',(-1.,0.,0.));
#566=DIRECTION('ref_axis',(0.,0.,-1.));
#567=DIRECTION('',(-1.,0.,0.));
#568=DIRECTION('center_axis',(-1.,0.,0.));
#569=DIRECTION('ref_axis',(0.,0.,-1.));
#570=DIRECTION('',(-1.,0.,0.));
#571=DIRECTION('center_axis',(-1.,0.,0.));
#572=DIRECTION('ref_axis',(0.,1.22464679914735E-16,1.));
#573=DIRECTION('center_axis',(0.,0.,1.));
#574=DIRECTION('ref_axis',(1.,0.,0.));
#575=DIRECTION('',(0.,0.,1.));
#576=DIRECTION('',(1.,0.,0.));
#577=DIRECTION('',(0.,1.,0.));
#578=DIRECTION('',(1.,0.,0.));
#579=DIRECTION('',(0.,0.,1.));
#580=DIRECTION('',(1.,0.,0.));
#581=CARTESIAN_POINT('',(0.,0.,0.));
#582=CARTESIAN_POINT('',(0.,0.,0.));
#583=CARTESIAN_POINT('Origin',(0.,0.,90.));
#584=CARTESIAN_POINT('',(-9.00000013411045,-1.10218213565641E-15,90.));
#585=CARTESIAN_POINT('Origin',(0.,0.,90.));
#586=CARTESIAN_POINT('Origin',(0.,0.,100.));
#587=CARTESIAN_POINT('',(-9.00000013411045,-1.10218213565641E-15,80.));
#588=CARTESIAN_POINT('Origin',(0.,0.,80.));
#589=CARTESIAN_POINT('',(-9.00000013411045,1.10218213565641E-15,100.));
#590=CARTESIAN_POINT('Ctrl Pts',(-2.,0.,0.));
#591=CARTESIAN_POINT('Ctrl Pts',(-2.,-2.,0.));
#592=CARTESIAN_POINT('Ctrl Pts',(0.,-2.,0.));
#593=CARTESIAN_POINT('Ctrl Pts',(2.,-2.,0.));
#594=CARTESIAN_POINT('Ctrl Pts',(2.,0.,0.));
#595=CARTESIAN_POINT('Ctrl Pts',(2.,2.,0.));
#596=CARTESIAN_POINT('Ctrl Pts',(0.,2.,0.));
#597=CARTESIAN_POINT('Ctrl Pts',(-2.,2.,0.));
#598=CARTESIAN_POINT('Ctrl Pts',(-2.,0.,0.));
#599=CARTESIAN_POINT('Ctrl Pts',(-7.,0.,6.79586418575448E-16));
#600=CARTESIAN_POINT('Ctrl Pts',(-7.,-7.,6.79586418575448E-16));
#601=CARTESIAN_POINT('Ctrl Pts',(0.,-7.,5.55111512312578E-16));
#602=CARTESIAN_POINT('Ctrl Pts',(7.,-7.,4.30636606049708E-16));
#603=CARTESIAN_POINT('Ctrl Pts',(7.,0.,4.30636606049708E-16));
#604=CARTESIAN_POINT('Ctrl Pts',(7.,7.,4.30636606049708E-16));
#605=CARTESIAN_POINT('Ctrl Pts',(0.,7.,5.55111512312578E-16));
#606=CARTESIAN_POINT('Ctrl Pts',(-7.,7.,6.79586418575448E-16));
#607=CARTESIAN_POINT('Ctrl Pts',(-7.,0.,6.79586418575448E-16));
#608=CARTESIAN_POINT('Ctrl Pts',(-7.,0.,5.));
#609=CARTESIAN_POINT('Ctrl Pts',(-7.,-7.,5.));
#610=CARTESIAN_POINT('Ctrl Pts',(0.,-7.,5.));
#611=CARTESIAN_POINT('Ctrl Pts',(7.,-7.,5.));
#612=CARTESIAN_POINT('Ctrl Pts',(7.,0.,5.));
#613=CARTESIAN_POINT('Ctrl Pts',(7.,7.,5.));
#614=CARTESIAN_POINT('Ctrl Pts',(0.,7.,5.));
#615=CARTESIAN_POINT('Ctrl Pts',(-7.,7.,5.));
#616=CARTESIAN_POINT('Ctrl Pts',(-7.,0.,5.));
#617=CARTESIAN_POINT('',(-7.,8.57252759403147E-16,5.));
#618=CARTESIAN_POINT('Origin',(0.,0.,5.));
#619=CARTESIAN_POINT('',(-2.,-2.44929359829471E-16,0.));
#620=CARTESIAN_POINT('Origin',(-2.,-2.44929359829471E-16,5.));
#621=CARTESIAN_POINT('Origin',(0.,0.,0.));
#622=CARTESIAN_POINT('Origin',(0.,0.,0.));
#623=CARTESIAN_POINT('',(-7.,8.57252759403147E-16,76.));
#624=CARTESIAN_POINT('Origin',(0.,0.,76.));
#625=CARTESIAN_POINT('',(-7.,-8.57252759403147E-16,0.));
#626=CARTESIAN_POINT('Origin',(0.,0.,0.));
#627=CARTESIAN_POINT('Origin',(0.,0.,77.5));
#628=CARTESIAN_POINT('',(-10.,1.22464679914735E-15,79.));
#629=CARTESIAN_POINT('',(-8.5,1.04094977927525E-15,77.5));
#630=CARTESIAN_POINT('Origin',(0.,0.,79.));
#631=CARTESIAN_POINT('Origin',(0.,0.,80.));
#632=CARTESIAN_POINT('',(-10.,-1.22464679914735E-15,80.));
#633=CARTESIAN_POINT('',(-10.,1.22464679914735E-15,80.));
#634=CARTESIAN_POINT('Origin',(0.,0.,80.));
#635=CARTESIAN_POINT('Origin',(0.,0.,80.));
#636=CARTESIAN_POINT('',(0.,0.,0.));
#637=CARTESIAN_POINT('Origin',(0.,0.,0.));
#638=CARTESIAN_POINT('',(-9.,53.,1.10218211923262E-15));
#639=CARTESIAN_POINT('Origin',(0.,53.,0.));
#640=CARTESIAN_POINT('',(-9.,0.,1.10218211923262E-15));
#641=CARTESIAN_POINT('',(-9.,0.,1.10218211923262E-15));
#642=CARTESIAN_POINT('Origin',(0.,0.,0.));
#643=CARTESIAN_POINT('Origin',(0.,0.,0.));
#644=CARTESIAN_POINT('',(-10.,53.,1.22464679914735E-15));
#645=CARTESIAN_POINT('Origin',(0.,53.,0.));
#646=CARTESIAN_POINT('',(-10.,0.,1.22464679914735E-15));
#647=CARTESIAN_POINT('',(-10.,0.,1.22464679914735E-15));
#648=CARTESIAN_POINT('Origin',(0.,0.,0.));
#649=CARTESIAN_POINT('Origin',(0.,53.,0.));
#650=CARTESIAN_POINT('Origin',(0.,0.,0.));
#651=CARTESIAN_POINT('',(0.,0.,0.));
#652=CARTESIAN_POINT('Origin',(0.,0.,43.));
#653=CARTESIAN_POINT('',(-2.00000002980232,7.27496438059955,43.));
#654=CARTESIAN_POINT('',(-2.00000002980232,8.77496438059954,43.));
#655=CARTESIAN_POINT('',(-2.00000002980232,4.38748219029977,43.));
#656=CARTESIAN_POINT('',(-5.29857464428009,7.27496438059955,43.));
#657=CARTESIAN_POINT('',(-2.00000002980232,7.27496438059955,43.));
#658=CARTESIAN_POINT('',(-7.91989138464696,4.27496438059954,43.));
#659=CARTESIAN_POINT('Origin',(0.,0.,43.));
#660=CARTESIAN_POINT('',(-2.00000002980232,4.27496438059954,43.));
#661=CARTESIAN_POINT('',(-2.00000002980232,4.27496438059954,43.));
#662=CARTESIAN_POINT('',(-2.00000002980232,-8.77496438059954,43.));
#663=CARTESIAN_POINT('',(-2.00000002980232,4.38748219029977,43.));
#664=CARTESIAN_POINT('Origin',(0.,0.,43.));
#665=CARTESIAN_POINT('Origin',(0.,0.,0.));
#666=CARTESIAN_POINT('',(-2.00000002980232,-8.77496438059954,60.));
#667=CARTESIAN_POINT('',(-2.00000002980232,-8.77496438059954,0.));
#668=CARTESIAN_POINT('',(-6.,-6.70820393249937,60.));
#669=CARTESIAN_POINT('Origin',(0.,0.,60.));
#670=CARTESIAN_POINT('',(-6.,-6.70820393249937,46.));
#671=CARTESIAN_POINT('',(-6.,-6.70820393249937,0.));
#672=CARTESIAN_POINT('',(-9.,-1.10218211923262E-15,46.));
#673=CARTESIAN_POINT('Origin',(0.,0.,46.));
#674=CARTESIAN_POINT('',(-9.,-1.10218211923262E-15,0.));
#675=CARTESIAN_POINT('',(-9.,-1.10218211923262E-15,0.));
#676=CARTESIAN_POINT('Origin',(0.,0.,0.));
#677=CARTESIAN_POINT('',(-6.,6.70820393249937,46.));
#678=CARTESIAN_POINT('Origin',(0.,0.,46.));
#679=CARTESIAN_POINT('',(-6.,6.70820393249937,60.));
#680=CARTESIAN_POINT('',(-6.,6.70820393249937,0.));
#681=CARTESIAN_POINT('',(-2.00000002980232,8.77496438059954,60.));
#682=CARTESIAN_POINT('Origin',(0.,0.,60.));
#683=CARTESIAN_POINT('',(-2.00000002980232,8.77496438059954,0.));
#684=CARTESIAN_POINT('Ctrl Pts',(-5.29857464428009,7.27496438059955,43.));
#685=CARTESIAN_POINT('Ctrl Pts',(-5.29857464428009,7.27496438059955,43.0965149815496));
#686=CARTESIAN_POINT('Ctrl Pts',(-5.31158728191243,7.26553477996341,43.1926957694606));
#687=CARTESIAN_POINT('Ctrl Pts',(-5.36050311872503,7.22951567216839,43.3784944650669));
#688=CARTESIAN_POINT('Ctrl Pts',(-5.39638993788101,7.20291673047564,43.4681148557087));
#689=CARTESIAN_POINT('Ctrl Pts',(-5.52802397758224,7.10303358454099,43.7203820032614));
#690=CARTESIAN_POINT('Ctrl Pts',(-5.64815985703676,7.00873392918333,43.8665404891933));
#691=CARTESIAN_POINT('Ctrl Pts',(-5.93551205945034,6.76888014859845,44.1437717903589));
#692=CARTESIAN_POINT('Ctrl Pts',(-6.13329393449174,6.59244991774162,44.2759825923133));
#693=CARTESIAN_POINT('Ctrl Pts',(-6.52948511421916,6.20028344004897,44.4544819715826));
#694=CARTESIAN_POINT('Ctrl Pts',(-6.72786390776364,5.98416611584052,44.5));
#695=CARTESIAN_POINT('Ctrl Pts',(-7.05327912101055,5.59519350525052,44.5));
#696=CARTESIAN_POINT('Ctrl Pts',(-7.20823520684757,5.39417778344965,44.4657881901822));
#697=CARTESIAN_POINT('Ctrl Pts',(-7.48129448799493,5.00859671878491,44.3062213888308));
#698=CARTESIAN_POINT('Ctrl Pts',(-7.59966144587056,4.8244125681647,44.1803973212337));
#699=CARTESIAN_POINT('Ctrl Pts',(-7.76024982050239,4.56038591845796,43.8966876273839));
#700=CARTESIAN_POINT('Ctrl Pts',(-7.82084144308442,4.45433762669564,43.7366742564168));
#701=CARTESIAN_POINT('Ctrl Pts',(-7.90047252044218,4.31152155881658,43.380893011239));
#702=CARTESIAN_POINT('Ctrl Pts',(-7.91989138464696,4.27496438059954,43.1851256516521));
#703=CARTESIAN_POINT('Ctrl Pts',(-7.91989138464696,4.27496438059954,43.));
#704=CARTESIAN_POINT('Origin',(-2.00000002980232,8.77496438059954,0.));
#705=CARTESIAN_POINT('',(-2.00000002980232,4.38748219029977,60.));
#706=CARTESIAN_POINT('Origin',(-2.00000002980232,5.77496438059954,43.));
#707=CARTESIAN_POINT('',(-2.00000002980232,-4.25000006332994,57.5));
#708=CARTESIAN_POINT('Origin',(-2.00000002980232,-4.25000006332994,56.));
#709=CARTESIAN_POINT('',(-2.00000002980232,4.25000006332994,57.5));
#710=CARTESIAN_POINT('Origin',(-2.00000002980232,4.25000006332994,56.));
#711=CARTESIAN_POINT('Origin',(-6.,6.70820393249937,60.));
#712=CARTESIAN_POINT('',(-6.,3.35410196624969,60.));
#713=CARTESIAN_POINT('',(-6.,-6.70820393249937,46.));
#714=CARTESIAN_POINT('',(-6.,4.25000006332994,57.5));
#715=CARTESIAN_POINT('Origin',(-6.,4.25000006332994,56.));
#716=CARTESIAN_POINT('',(-6.,-4.25000006332994,57.5));
#717=CARTESIAN_POINT('Origin',(-6.,-4.25000006332994,56.));
#718=CARTESIAN_POINT('Origin',(-7.5,1.11022302462516E-15,46.));
#719=CARTESIAN_POINT('Origin',(0.,0.,60.));
#720=CARTESIAN_POINT('Origin',(-2.00000002980232,4.25000006332994,56.));
#721=CARTESIAN_POINT('',(-2.00000002980232,4.25000006332994,57.5));
#722=CARTESIAN_POINT('Origin',(-2.00000002980232,-4.25000006332994,56.));
#723=CARTESIAN_POINT('',(-2.00000002980232,-4.25000006332994,57.5));
#724=CARTESIAN_POINT('Origin',(-2.00000002980232,5.77496438059954,43.));
#725=CARTESIAN_POINT('Origin',(0.,0.,0.));
#726=CARTESIAN_POINT('',(0.,0.,0.));
#727=CARTESIAN_POINT('',(0.,0.,133.));
#728=CARTESIAN_POINT('',(0.,0.,90.));
#729=UNCERTAINTY_MEASURE_WITH_UNIT(LENGTH_MEASURE(0.01),#739,
'DISTANCE_ACCURACY_VALUE',
'Maximum model space distance between geometric entities at asserted c
onnectivities');
#730=UNCERTAINTY_MEASURE_WITH_UNIT(LENGTH_MEASURE(0.01),#739,
'DISTANCE_ACCURACY_VALUE',
'Maximum model space distance between geometric entities at asserted c
onnectivities');
#731=UNCERTAINTY_MEASURE_WITH_UNIT(LENGTH_MEASURE(0.01),#739,
'DISTANCE_ACCURACY_VALUE',
'Maximum model space distance between geometric entities at asserted c
onnectivities');
#732=UNCERTAINTY_MEASURE_WITH_UNIT(LENGTH_MEASURE(0.01),#739,
'DISTANCE_ACCURACY_VALUE',
'Maximum model space distance between geometric entities at asserted c
onnectivities');
#733=UNCERTAINTY_MEASURE_WITH_UNIT(LENGTH_MEASURE(0.01),#739,
'DISTANCE_ACCURACY_VALUE',
'Maximum model space distance between geometric entities at asserted c
onnectivities');
#734=(
GEOMETRIC_REPRESENTATION_CONTEXT(3)
GLOBAL_UNCERTAINTY_ASSIGNED_CONTEXT((#729))
GLOBAL_UNIT_ASSIGNED_CONTEXT((#739,#741,#742))
REPRESENTATION_CONTEXT('','3D')
);
#735=(
GEOMETRIC_REPRESENTATION_CONTEXT(3)
GLOBAL_UNCERTAINTY_ASSIGNED_CONTEXT((#730))
GLOBAL_UNIT_ASSIGNED_CONTEXT((#739,#741,#742))
REPRESENTATION_CONTEXT('','3D')
);
#736=(
GEOMETRIC_REPRESENTATION_CONTEXT(3)
GLOBAL_UNCERTAINTY_ASSIGNED_CONTEXT((#731))
GLOBAL_UNIT_ASSIGNED_CONTEXT((#739,#741,#742))
REPRESENTATION_CONTEXT('','3D')
);
#737=(
GEOMETRIC_REPRESENTATION_CONTEXT(3)
GLOBAL_UNCERTAINTY_ASSIGNED_CONTEXT((#732))
GLOBAL_UNIT_ASSIGNED_CONTEXT((#739,#741,#742))
REPRESENTATION_CONTEXT('','3D')
);
#738=(
GEOMETRIC_REPRESENTATION_CONTEXT(3)
GLOBAL_UNCERTAINTY_ASSIGNED_CONTEXT((#733))
GLOBAL_UNIT_ASSIGNED_CONTEXT((#739,#741,#742))
REPRESENTATION_CONTEXT('','3D')
);
#739=(
LENGTH_UNIT()
NAMED_UNIT(*)
SI_UNIT(.MILLI.,.METRE.)
);
#740=(
LENGTH_UNIT()
NAMED_UNIT(*)
SI_UNIT($,.METRE.)
);
#741=(
NAMED_UNIT(*)
PLANE_ANGLE_UNIT()
SI_UNIT($,.RADIAN.)
);
#742=(
NAMED_UNIT(*)
SI_UNIT($,.STERADIAN.)
SOLID_ANGLE_UNIT()
);
#743=SHAPE_DEFINITION_REPRESENTATION(#747,#754);
#744=SHAPE_DEFINITION_REPRESENTATION(#748,#755);
#745=SHAPE_DEFINITION_REPRESENTATION(#749,#756);
#746=SHAPE_DEFINITION_REPRESENTATION(#750,#757);
#747=PRODUCT_DEFINITION_SHAPE('',$,#759);
#748=PRODUCT_DEFINITION_SHAPE('',$,#760);
#749=PRODUCT_DEFINITION_SHAPE('',$,#761);
#750=PRODUCT_DEFINITION_SHAPE('',$,#762);
#751=PRODUCT_DEFINITION_SHAPE($,$,#20);
#752=PRODUCT_DEFINITION_SHAPE($,$,#21);
#753=PRODUCT_DEFINITION_SHAPE($,$,#22);
#754=SHAPE_REPRESENTATION('',(#405,#454,#455,#456),#734);
#755=SHAPE_REPRESENTATION('',(#406),#735);
#756=SHAPE_REPRESENTATION('',(#422),#736);
#757=SHAPE_REPRESENTATION('',(#431),#737);
#758=PRODUCT_DEFINITION_CONTEXT('part definition',#772,'design');
#759=PRODUCT_DEFINITION('2026-09-03-20-06-52-204',
'Heated Pitot space model (Assembly)',#763,#758);
#760=PRODUCT_DEFINITION('heated pitot tip space saver',
'heated pitot tip space saver',#764,#758);
#761=PRODUCT_DEFINITION('2026-04-02-14-52-03-392','ADM tube',#765,#758);
#762=PRODUCT_DEFINITION('2026-09-03-21-25-25-497',
'space model ADM positioner',#766,#758);
#763=PRODUCT_DEFINITION_FORMATION('',$,#774);
#764=PRODUCT_DEFINITION_FORMATION('',$,#775);
#765=PRODUCT_DEFINITION_FORMATION('',$,#776);
#766=PRODUCT_DEFINITION_FORMATION('',$,#777);
#767=PRODUCT_RELATED_PRODUCT_CATEGORY(
'Heated Pitot space model (Assembly)',
'Heated Pitot space model (Assembly)',(#774));
#768=PRODUCT_RELATED_PRODUCT_CATEGORY('heated pitot tip space saver',
'heated pitot tip space saver',(#775));
#769=PRODUCT_RELATED_PRODUCT_CATEGORY('ADM tube','ADM tube',(#776));
#770=PRODUCT_RELATED_PRODUCT_CATEGORY('space model ADM positioner',
'space model ADM positioner',(#777));
#771=APPLICATION_PROTOCOL_DEFINITION('international standard',
'automotive_design',2009,#772);
#772=APPLICATION_CONTEXT(
'Core Data for Automotive Mechanical Design Process');
#773=PRODUCT_CONTEXT('part definition',#772,'mechanical');
#774=PRODUCT('2026-09-03-20-06-52-204',
'Heated Pitot space model (Assembly)',$,(#773));
#775=PRODUCT('heated pitot tip space saver',
'heated pitot tip space saver',$,(#773));
#776=PRODUCT('2026-04-02-14-52-03-392','ADM tube',$,(#773));
#777=PRODUCT('2026-09-03-21-25-25-497','space model ADM positioner',$,(#773));
#778=PRESENTATION_STYLE_ASSIGNMENT((#781));
#779=PRESENTATION_STYLE_ASSIGNMENT((#782));
#780=PRESENTATION_STYLE_ASSIGNMENT((#783));
#781=SURFACE_STYLE_USAGE(.BOTH.,#784);
#782=SURFACE_STYLE_USAGE(.BOTH.,#785);
#783=SURFACE_STYLE_USAGE(.BOTH.,#786);
#784=SURFACE_SIDE_STYLE('',(#787));
#785=SURFACE_SIDE_STYLE('',(#788));
#786=SURFACE_SIDE_STYLE('',(#789));
#787=SURFACE_STYLE_FILL_AREA(#790);
#788=SURFACE_STYLE_FILL_AREA(#791);
#789=SURFACE_STYLE_FILL_AREA(#792);
#790=FILL_AREA_STYLE('Steel - Satin',(#793));
#791=FILL_AREA_STYLE('Aluminum - Satin',(#794));
#792=FILL_AREA_STYLE('Carbon Fiber - Plain',(#795));
#793=FILL_AREA_STYLE_COLOUR('Steel - Satin',#796);
#794=FILL_AREA_STYLE_COLOUR('Aluminum - Satin',#797);
#795=FILL_AREA_STYLE_COLOUR('Carbon Fiber - Plain',#798);
#796=COLOUR_RGB('Steel - Satin',0.627450980392157,0.627450980392157,0.627450980392157);
#797=COLOUR_RGB('Aluminum - Satin',0.96078431372549,0.96078431372549,0.964705882352941);
#798=COLOUR_RGB('Carbon Fiber - Plain',0.0980392156862745,0.0980392156862745,
0.0980392156862745);
ENDSEC;
END-ISO-10303-21;
